
<svg version="1.1" xmlns="http://www.w3.org/2000/svg" width="512" height="512">
<path d="M0 0 C1.81502166 1.57769342 3.6054795 3.18393703 5.375 4.8125 C5.89304199 5.28284668 6.41108398 5.75319336 6.94482422 6.23779297 C27.11537281 24.73195284 40.04262169 50.28912808 41.484375 77.90771484 C42.58131058 109.20465825 32.74399952 136.07134491 12.015625 159.4765625 C-2.87004907 175.18921847 -21.76950726 184.75662297 -42.625 189.8125 C-43.285 189.8125 -43.945 189.8125 -44.625 189.8125 C-44.625 198.7225 -44.625 207.6325 -44.625 216.8125 C-42.315 217.1425 -40.005 217.4725 -37.625 217.8125 C-32.993703 220.338662 -31.75056526 223.2805942 -30.2381897 228.07583618 C-29.05174974 233.37091423 -29.22026487 238.70334176 -29.26171875 244.10546875 C-29.26122025 245.36909744 -29.26072174 246.63272614 -29.26020813 247.93464661 C-29.26254074 250.6000576 -29.27061268 253.2646616 -29.28881836 255.92993164 C-29.3113875 259.30376477 -29.31206498 262.6771482 -29.30530071 266.05103588 C-29.30110246 269.31921253 -29.31317782 272.58731346 -29.32421875 275.85546875 C-29.32330734 277.04553024 -29.32239594 278.23559174 -29.32145691 279.4617157 C-29.46452317 296.73887454 -31.64562933 312.65524141 -43.625 325.8125 C-44.22054688 326.49957031 -44.81609375 327.18664062 -45.4296875 327.89453125 C-55.68048799 339.0172878 -68.83052194 343.95923108 -83.625 344.8125 C-90.29238065 344.98539668 -96.96387547 344.92912554 -103.6328125 344.91015625 C-105.56908125 344.9082884 -107.50535048 344.90686623 -109.44161987 344.90586853 C-114.50827364 344.90207228 -119.5748982 344.89226705 -124.64154053 344.88116455 C-130.73653561 344.86907724 -136.83154052 344.86453441 -142.92654419 344.85871124 C-152.15938303 344.84905346 -161.39215794 344.82987674 -170.625 344.8125 C-170.625 359.6625 -170.625 374.5125 -170.625 389.8125 C-159.3314468 389.69400338 -159.3314468 389.69400338 -148.03833008 389.54223633 C-146.61540402 389.53346892 -145.1924704 389.52582558 -143.76953125 389.51953125 C-142.67433167 389.4965094 -142.67433167 389.4965094 -141.55700684 389.47302246 C-137.04459874 389.47071825 -134.19690928 390.00748744 -130.625 392.8125 C-127.21358049 397.42252637 -125.96610674 400.92054287 -126.23046875 406.66796875 C-127.06470245 411.20256582 -130.12619478 414.92218265 -133.625 417.8125 C-137.24070045 419.01773348 -140.54642262 418.96060622 -144.31037903 418.95967102 C-145.49618758 418.96518605 -145.49618758 418.96518605 -146.70595187 418.9708125 C-149.36362613 418.9818545 -152.0212613 418.98569403 -154.67895508 418.98950195 C-156.58096949 418.99576614 -158.48298267 419.0024129 -160.38499451 419.00941467 C-165.55860419 419.02682674 -170.73220462 419.0373767 -175.90583634 419.0456202 C-179.13699584 419.05076924 -182.36815246 419.05684497 -185.59930992 419.06313133 C-195.70564978 419.0821828 -205.81198232 419.09641482 -215.91833669 419.1047433 C-227.59066677 419.11452077 -239.26280748 419.14085382 -250.93507081 419.18124419 C-259.95341111 419.21138207 -268.97169704 419.22620991 -277.99008673 419.22952431 C-283.37824539 419.23187717 -288.7662017 419.24086848 -294.15430641 419.26598549 C-299.22275449 419.28923086 -304.29086649 419.29351365 -309.35935402 419.28322411 C-311.21935136 419.2827278 -313.07936506 419.28907612 -314.93931198 419.30278015 C-317.47950208 419.32044876 -320.01847946 419.31341825 -322.55867004 419.30024719 C-323.66165089 419.31670106 -323.66165089 419.31670106 -324.78691417 419.33348733 C-329.85683075 419.27005826 -332.71121723 417.98363485 -336.625 414.8125 C-339.60079122 411.01580086 -340.46216445 407.61614862 -340.625 402.8125 C-339.6974788 398.39021143 -338.35482117 395.50672014 -335.0625 392.375 C-330.83967845 389.66806311 -327.68538469 389.68113483 -322.7734375 389.71484375 C-322.08741455 389.71585083 -321.4013916 389.71685791 -320.69458008 389.71789551 C-318.12970307 389.72313111 -315.56484987 389.73709237 -313 389.75 C-304.399375 389.7809375 -304.399375 389.7809375 -295.625 389.8125 C-295.625 374.9625 -295.625 360.1125 -295.625 344.8125 C-304.92751953 344.84730469 -304.92751953 344.84730469 -314.41796875 344.8828125 C-318.36914486 344.89304297 -322.32030443 344.90267174 -326.27148438 344.91015625 C-332.52990145 344.92206783 -338.78825947 344.93609218 -345.04663086 344.96337891 C-350.0976202 344.98526121 -355.14854612 344.99710079 -360.19957924 345.00225449 C-362.11748565 345.00592281 -364.03538896 345.01308534 -365.95326805 345.02396011 C-387.57147221 345.14155886 -404.7639878 342.92689921 -421.5859375 328.08203125 C-425.64758641 323.91930058 -428.29283488 319.06553375 -430.9375 313.9375 C-431.44446411 312.96586914 -431.44446411 312.96586914 -431.96166992 311.97460938 C-437.52771342 300.61982426 -436.92300581 288.63484444 -436.91552734 276.29638672 C-436.9215189 274.32089485 -436.92832588 272.34540532 -436.93588257 270.36991882 C-436.95348805 265.02455322 -436.95823571 259.67925172 -436.95951414 254.33385992 C-436.96093964 250.98716543 -436.96521683 247.64048702 -436.97050858 244.29379654 C-436.98899237 232.59787214 -436.99718145 220.90199321 -436.99560547 209.20605469 C-436.99440523 198.33725691 -437.01548879 187.46865809 -437.0470928 176.59991062 C-437.07332631 167.24156515 -437.08396977 157.88328437 -437.08269465 148.52490246 C-437.082187 142.94763059 -437.08776027 137.37053558 -437.10905075 131.79330063 C-437.12855212 126.54168426 -437.12847689 121.29041129 -437.11401749 116.03878212 C-437.11194282 114.12332082 -437.11654907 112.20783735 -437.1287384 110.29241371 C-437.24772826 90.28069842 -434.1740405 74.21459597 -420.04296875 59.13671875 C-405.61042726 45.26375883 -389.19716039 43.508958 -370.09326172 43.52197266 C-368.33138751 43.51597979 -366.56951591 43.50917251 -364.80764771 43.50161743 C-360.04750975 43.48403509 -355.28744381 43.47926556 -350.52727652 43.47798586 C-347.54983499 43.47656018 -344.57241154 43.47228287 -341.59497452 43.46699142 C-331.1985585 43.44852236 -320.8021936 43.44031758 -310.40576172 43.44189453 C-300.72740098 43.44309759 -291.04926264 43.42195495 -281.37095821 43.3904072 C-273.04627369 43.36424218 -264.72166186 43.35352721 -256.39693654 43.35480535 C-251.43136257 43.35531458 -246.4659868 43.34965193 -241.50045395 43.32844925 C-236.83324061 43.30906109 -232.16641461 43.30894631 -227.49918747 43.32348251 C-225.78999769 43.32557044 -224.0807836 43.32087066 -222.37163544 43.3087616 C-206.27387554 43.20212357 -206.27387554 43.20212357 -199.625 47.8125 C-197.96875 49.84765625 -197.96875 49.84765625 -197.125 51.875 C-196.8259375 52.54660156 -196.526875 53.21820313 -196.21875 53.91015625 C-195.625 55.8125 -195.625 55.8125 -195.625 58.8125 C-186.715 58.8125 -177.805 58.8125 -168.625 58.8125 C-167.965 55.8425 -167.305 52.8725 -166.625 49.8125 C-165.62636071 47.11959933 -164.61177868 44.54653728 -163.4375 41.9375 C-163.12925293 41.24696533 -162.82100586 40.55643066 -162.50341797 39.8449707 C-150.94739019 14.59149565 -129.68297257 -4.73909948 -104 -15 C-69.76405497 -27.40009229 -28.96372281 -22.94364671 0 0 Z " fill="#f0f8ff00" transform="translate(453.625,57.1875)"/>
<path d="M0 0 C1.76187421 -0.00599287 3.52374581 -0.01280014 5.28561401 -0.02035522 C10.04575197 -0.03793756 14.80581791 -0.04270709 19.5659852 -0.0439868 C22.54342673 -0.04541248 25.52085018 -0.04968979 28.4982872 -0.05498123 C38.89470322 -0.0734503 49.29106812 -0.08165508 59.6875 -0.08007812 C69.36586074 -0.07887506 79.04399908 -0.10001771 88.72230351 -0.13156545 C97.04698803 -0.15773048 105.37159986 -0.16844544 113.69632518 -0.16716731 C118.66189915 -0.16665808 123.62727492 -0.17232072 128.59280777 -0.19352341 C133.26002111 -0.21291157 137.92684711 -0.21302635 142.59407425 -0.19849014 C144.30326403 -0.19640222 146.01247812 -0.201102 147.72162628 -0.21321106 C163.76108252 -0.31946286 163.76108252 -0.31946286 170.46826172 4.29052734 C173.41116853 7.33996472 174.49089975 10.63795121 174.43310547 14.85693359 C173.57761703 20.43006699 172.07533638 23.78037522 167.46826172 27.29052734 C163.79767976 29.66679421 160.57059926 29.54097392 156.25900269 29.54208374 C155.53168477 29.54505388 154.80436686 29.54802402 154.05500901 29.55108416 C151.61699627 29.55872475 149.17922441 29.55222983 146.74121094 29.54589844 C144.99332007 29.5486484 143.24543046 29.55232833 141.49754333 29.55686951 C137.73198636 29.5649845 133.96648879 29.56714915 130.20092392 29.56492233 C124.241332 29.56208946 118.28185866 29.57644156 112.32229614 29.59390259 C95.3748758 29.64092797 78.42746314 29.66486097 61.47998047 29.67138672 C52.12104467 29.67514258 42.76224273 29.69321654 33.4033643 29.72648108 C27.48510846 29.74665681 21.56719878 29.74908366 15.64892268 29.7382009 C11.95653912 29.73558507 8.26435505 29.74964083 4.57202339 29.76828194 C2.86691708 29.77358363 1.16177356 29.77214194 -0.54331779 29.76324654 C-11.25417456 29.71190152 -20.99853033 29.92310863 -29.40673828 37.41552734 C-37.94163797 47.02863946 -37.10589934 58.47233292 -37.04931641 70.55053711 C-37.05474305 72.49798098 -37.06186874 74.44542073 -37.07055664 76.39285278 C-37.08872718 81.65932909 -37.08174868 86.9254905 -37.0690403 92.19197202 C-37.05888155 97.71441039 -37.06831382 103.23682261 -37.07458496 108.75926208 C-37.08185238 118.03039367 -37.07229676 127.30139759 -37.05322266 136.57250977 C-37.0314493 147.2790091 -37.03851239 157.98520377 -37.06052828 168.69169575 C-37.07870037 177.89878235 -37.08123192 187.10577742 -37.0707736 196.31287616 C-37.06454948 201.80550849 -37.06367347 207.29799776 -37.07691956 212.7906208 C-37.08850396 217.9544267 -37.08040488 223.11784101 -37.05734253 228.28160477 C-37.05206957 230.17258111 -37.05354493 232.06359061 -37.06239319 233.9545536 C-37.11396743 246.0993863 -36.39888635 255.03090395 -28.48486328 264.68505859 C-21.33915146 270.55883371 -14.81919755 270.86632168 -5.89942932 270.79846191 C-4.63712634 270.80470188 -3.37482335 270.81094184 -2.07426876 270.81737089 C1.4135134 270.83401258 4.90085571 270.82584174 8.38863909 270.81342602 C12.15628841 270.80435642 15.92386337 270.81835475 19.6914978 270.8293457 C27.06625281 270.84711572 34.44084482 270.84329759 41.81560617 270.83169514 C47.81077539 270.82265442 53.80589899 270.82143958 59.80107307 270.82579041 C60.65497727 270.82640334 61.50888147 270.82701627 62.38866155 270.82764778 C64.12347071 270.82892671 65.85827986 270.83022356 67.59308899 270.83153814 C83.85405282 270.84293967 100.1149264 270.8298373 116.37587542 270.80833668 C130.32053442 270.79046928 144.26506021 270.79356765 158.2097168 270.81201172 C174.4117151 270.83343152 190.61363431 270.8418377 206.8156448 270.82956266 C208.54430805 270.8282885 210.27297132 270.82703102 212.0016346 270.82579041 C212.85211836 270.8251733 213.70260212 270.8245562 214.57885812 270.8239204 C220.56448248 270.82047059 226.55005657 270.82628795 232.53567314 270.83570862 C239.83361945 270.84694246 247.13139372 270.84385966 254.42932039 270.82258564 C258.15100192 270.81209326 261.87239692 270.80792211 265.59407616 270.82118225 C269.63262184 270.83535341 273.67044787 270.81840096 277.70896912 270.79846191 C278.87959961 270.8073848 280.0502301 270.81630769 281.25633425 270.82550097 C289.54052334 270.7461767 295.15944533 268.83664612 302.21826172 264.66552734 C309.35470849 257.13261131 310.17654758 248.82390118 310.05984688 238.85386086 C310.0341081 236.63683376 310.03932405 234.42163653 310.05174255 232.20451355 C310.07233515 227.50380996 310.0528808 222.80369203 310.03076172 218.10302734 C310.00957685 212.63970149 310.00517698 207.17697298 310.03126335 201.71365929 C310.03460236 199.5402631 310.01348969 197.36803658 309.99085999 195.19477844 C309.97637059 188.19528396 310.0342459 182.94557963 314.46826172 177.29052734 C317.58433002 174.33026246 321.20713166 173.04652547 325.46826172 172.79052734 C330.01291323 173.04643976 332.80125628 174.63015085 336.46826172 177.29052734 C340.2058468 182.14938796 340.59061449 187.07274227 340.61352539 193.05200195 C340.62309517 194.75549049 340.62309517 194.75549049 340.63285828 196.49339294 C340.63452751 198.32463463 340.63452751 198.32463463 340.63623047 200.19287109 C340.63955887 201.46215958 340.64288727 202.73144806 340.64631653 204.03919983 C340.65137865 206.72823587 340.65415795 209.41717089 340.65356445 212.10620117 C340.65346365 215.51149305 340.6670359 218.91657259 340.68433666 222.32181454 C340.6983093 225.61215811 340.69755063 228.90250196 340.69873047 232.19287109 C340.70591599 233.3954808 340.7131015 234.59809052 340.72050476 235.83714294 C340.67475097 253.14787632 338.46702489 269.11196947 326.46826172 282.29052734 C325.87271484 282.97759766 325.27716797 283.66466797 324.66357422 284.37255859 C314.41277373 295.49531514 301.26273978 300.43725842 286.46826172 301.29052734 C279.80088107 301.46342402 273.12938625 301.40715289 266.46044922 301.38818359 C264.52418047 301.38631574 262.58791124 301.38489357 260.65164185 301.38389587 C255.58498808 301.38009962 250.51836352 301.3702944 245.45172119 301.35919189 C239.35672611 301.34710459 233.2617212 301.34256175 227.16671753 301.33673859 C217.93387868 301.32708081 208.70110378 301.30790409 199.46826172 301.29052734 C199.46826172 316.14052734 199.46826172 330.99052734 199.46826172 346.29052734 C210.76181492 346.17203073 210.76181492 346.17203073 222.05493164 346.02026367 C223.4778577 346.01149627 224.90079132 346.00385293 226.32373047 345.99755859 C227.41893005 345.97453674 227.41893005 345.97453674 228.53625488 345.9510498 C233.04866298 345.9487456 235.89635244 346.48551479 239.46826172 349.29052734 C242.87968123 353.90055371 244.12715498 357.39857021 243.86279297 363.14599609 C243.02855926 367.68059316 239.96706694 371.40020999 236.46826172 374.29052734 C232.85256127 375.49576083 229.5468391 375.43863357 225.78288269 375.43769836 C224.59707413 375.4432134 224.59707413 375.4432134 223.38730985 375.44883984 C220.72963559 375.45988185 218.07200042 375.46372138 215.41430664 375.4675293 C213.51229223 375.47379348 211.61027905 375.48044024 209.70826721 375.48744202 C204.53465753 375.50485408 199.36105709 375.51540405 194.18742537 375.52364755 C190.95626588 375.52879659 187.72510926 375.53487232 184.4939518 375.54115868 C174.38761194 375.56021014 164.28127939 375.57444216 154.17492503 375.58277065 C142.50259494 375.59254811 130.83045424 375.61888117 119.15819091 375.65927154 C110.13985061 375.68940941 101.12156467 375.70423725 92.10317498 375.70755166 C86.71501633 375.70990451 81.32706002 375.71889582 75.93895531 375.74401283 C70.87050723 375.76725821 65.80239522 375.77154099 60.7339077 375.76125145 C58.87391036 375.76075514 57.01389666 375.76710346 55.15394974 375.7808075 C52.61375964 375.7984761 50.07478226 375.7914456 47.53459167 375.77827454 C46.43161083 375.79472841 46.43161083 375.79472841 45.30634755 375.81151468 C40.23643097 375.7480856 37.38204449 374.46166219 33.46826172 371.29052734 C30.4924705 367.4938282 29.63109727 364.09417596 29.46826172 359.29052734 C30.39578292 354.86823877 31.73844055 351.98474748 35.03076172 348.85302734 C39.25358327 346.14609045 42.40787703 346.15916217 47.31982422 346.19287109 C48.00584717 346.19387817 48.69187012 346.19488525 49.39868164 346.19592285 C51.96355865 346.20115845 54.52841185 346.21511971 57.09326172 346.22802734 C65.69388672 346.25896484 65.69388672 346.25896484 74.46826172 346.29052734 C74.46826172 331.44052734 74.46826172 316.59052734 74.46826172 301.29052734 C65.16574219 301.32533203 65.16574219 301.32533203 55.67529297 301.36083984 C51.72411686 301.37107032 47.77295729 301.38069908 43.82177734 301.38818359 C37.56336027 301.40009518 31.30500225 301.41411952 25.04663086 301.44140625 C19.99564152 301.46328855 14.9447156 301.47512813 9.89368248 301.48028183 C7.97577607 301.48395016 6.05787275 301.49111268 4.13999367 301.50198746 C-17.47821049 301.6195862 -34.67072608 299.40492656 -51.49267578 284.56005859 C-55.55432469 280.39732792 -58.19957316 275.54356109 -60.84423828 270.41552734 C-61.35120239 269.44389648 -61.35120239 269.44389648 -61.8684082 268.45263672 C-67.4344517 257.0978516 -66.82974409 245.11287179 -66.82226562 232.77441406 C-66.82825718 230.7989222 -66.83506416 228.82343266 -66.84262085 226.84794617 C-66.86022633 221.50258056 -66.86497399 216.15727907 -66.86625242 210.81188726 C-66.86767792 207.46519277 -66.87195511 204.11851437 -66.87724686 200.77182388 C-66.89573065 189.07589948 -66.90391973 177.38002055 -66.90234375 165.68408203 C-66.90114351 154.81528426 -66.92222707 143.94668543 -66.95383108 133.07793796 C-66.9800646 123.7195925 -66.99070805 114.36131172 -66.98943293 105.00292981 C-66.98892528 99.42565793 -66.99449855 93.84856292 -67.01578903 88.27132797 C-67.03529041 83.0197116 -67.03521517 77.76843863 -67.02075577 72.51680946 C-67.0186811 70.60134817 -67.02328735 68.68586469 -67.03547668 66.77044106 C-67.15446655 46.75872577 -64.08077878 30.69262332 -49.94970703 15.61474609 C-35.51716554 1.74178618 -19.10389867 -0.01301466 0 0 Z " fill="#1A83A8" transform="translate(83.53173828125,100.70947265625)"/>
<path d="M0 0 C1.81502166 1.57769342 3.6054795 3.18393703 5.375 4.8125 C5.89304199 5.28284668 6.41108398 5.75319336 6.94482422 6.23779297 C27.11537281 24.73195284 40.04262169 50.28912808 41.484375 77.90771484 C42.58131058 109.20465825 32.74399952 136.07134491 12.015625 159.4765625 C-5.57972019 178.04942687 -29.89863692 189.83779326 -55.48828125 190.93530273 C-85.77176243 191.75036043 -111.22702194 185.92077992 -134.625 165.8125 C-135.61693359 165.03712891 -135.61693359 165.03712891 -136.62890625 164.24609375 C-155.316966 149.18238498 -168.75719003 122.84175392 -171.42578125 99.14160156 C-173.8970353 70.24973436 -168.24777105 41.41889261 -149.49682617 18.56567383 C-147.26005947 15.92914457 -144.95671996 13.36578611 -142.625 10.8125 C-142.00753906 10.12414062 -141.39007813 9.43578125 -140.75390625 8.7265625 C-105.21356197 -28.94449787 -40.08285038 -31.75167653 0 0 Z " fill="#FDFEFE" transform="translate(453.625,57.1875)"/>
<path d="M0 0 C1.81502166 1.57769342 3.6054795 3.18393703 5.375 4.8125 C5.89304199 5.28284668 6.41108398 5.75319336 6.94482422 6.23779297 C27.11537281 24.73195284 40.04262169 50.28912808 41.484375 77.90771484 C42.58131058 109.20465825 32.74399952 136.07134491 12.015625 159.4765625 C-5.57972019 178.04942687 -29.89863692 189.83779326 -55.48828125 190.93530273 C-85.77176243 191.75036043 -111.22702194 185.92077992 -134.625 165.8125 C-135.61693359 165.03712891 -135.61693359 165.03712891 -136.62890625 164.24609375 C-155.316966 149.18238498 -168.75719003 122.84175392 -171.42578125 99.14160156 C-173.8970353 70.24973436 -168.24777105 41.41889261 -149.49682617 18.56567383 C-147.26005947 15.92914457 -144.95671996 13.36578611 -142.625 10.8125 C-142.00753906 10.12414062 -141.39007813 9.43578125 -140.75390625 8.7265625 C-105.21356197 -28.94449787 -40.08285038 -31.75167653 0 0 Z M-117.625 27.8125 C-118.39199219 28.48796875 -119.15898437 29.1634375 -119.94921875 29.859375 C-126.2273113 35.70045262 -130.50880072 42.3276825 -134.625 49.8125 C-135.12128906 50.70839844 -135.61757813 51.60429688 -136.12890625 52.52734375 C-144.22567757 68.60003906 -145.33408187 90.72565393 -140.00439453 107.80078125 C-132.54631514 129.63325806 -117.99803646 145.94925784 -97.3125 156.125 C-78.37956058 164.30421209 -58.47201466 165.08935862 -38.859375 158.55859375 C-19.6341678 150.78805295 -3.33125738 136.78376238 5.32128906 117.72851562 C13.02337725 99.43294044 15.03635386 77.08887787 7.91796875 58.24609375 C-1.20187731 37.95155025 -14.95504788 21.60335232 -35.9375 13.0625 C-64.63878805 2.84335749 -94.81383652 6.87896294 -117.625 27.8125 Z " fill="#1B83A8" transform="translate(453.625,57.1875)"/>
<path d="M0 0 C14.2543273 9.76563744 24.59198988 25.63880796 28.14453125 42.6171875 C30.50283807 61.11371158 26.24039957 78.41087459 15.2890625 93.5859375 C13.50035095 95.79481619 11.58930772 97.77197055 9.54296875 99.7421875 C10.72412332 103.28565121 11.37689433 103.47745124 14.48046875 105.3046875 C21.69862281 109.92845712 29.92524503 116.84897211 33.54296875 124.7421875 C34.32293144 129.71237531 34.20075543 134.16142092 31.85546875 138.6796875 C29.43542892 141.88460511 28.28952565 143.35759039 24.54296875 144.7421875 C19.7105416 145.38974893 15.83229153 145.32364679 11.35546875 143.3046875 C8.89529046 141.06319173 7.23113644 139.03385442 5.29296875 136.3671875 C-1.59262239 127.19142163 -12.64251613 123.17167197 -23.66015625 121.15625 C-42.06880122 119.14872287 -60.22245085 120.00624621 -75.45703125 131.7421875 C-77.71625396 134.25328301 -79.72592339 136.84882206 -81.734375 139.5625 C-84.54659548 143.12081979 -87.17922002 144.29939803 -91.546875 145.1484375 C-95.25540544 145.50344212 -97.58459867 145.29296564 -100.77734375 143.27734375 C-104.55890158 140.07182967 -106.96142238 137.86640547 -107.765625 132.796875 C-108.24366852 124.71359361 -104.5513211 120.23630132 -99.37109375 114.38671875 C-94.55001473 109.33727283 -89.4294206 105.34256406 -83.45703125 101.7421875 C-84.77908904 98.84979815 -85.90041068 97.26787462 -88.14453125 94.8671875 C-100.82564586 80.35228426 -102.65875664 61.95641839 -101.71142578 43.51464844 C-101.15037856 37.40020292 -99.22812403 32.22058831 -96.45703125 26.7421875 C-95.98394531 25.73542969 -95.51085937 24.72867188 -95.0234375 23.69140625 C-87.51177141 9.24877643 -74.67252804 -1.67096588 -59.4921875 -7.37109375 C-57.15562603 -8.09505039 -54.84155061 -8.71750006 -52.45703125 -9.2578125 C-51.8542334 -9.42692139 -51.25143555 -9.59603027 -50.63037109 -9.77026367 C-33.10295225 -13.70221777 -14.91186054 -9.37776924 0 0 Z " fill="#1B83A8" transform="translate(257.45703125,184.2578125)"/>
<path d="M0 0 C2.21422514 1.54010983 4.37534414 3.13422142 6.52832031 4.75878906 C8.10734737 5.92729856 9.68677944 7.09526096 11.26660156 8.26269531 C12.04471191 8.84164551 12.82282227 9.4205957 13.62451172 10.01708984 C15.73460682 11.57196815 17.86293086 13.09364291 20.00878906 14.59863281 C20.63769043 15.04005615 21.2665918 15.48147949 21.91455078 15.9362793 C23.60390599 17.11800365 25.29458236 18.29783869 26.98535156 19.47753906 C31.28842922 22.74949101 34.85202851 26.18278641 37.65332031 30.82128906 C38.06066406 31.48386719 38.46800781 32.14644531 38.88769531 32.82910156 C42.21150769 38.93980278 41.50443416 46.19011685 39.90332031 52.75878906 C36.5771244 62.32048562 28.35186604 68.27670365 20.21582031 73.69628906 C18.44626805 74.90068528 16.67673682 76.10511238 14.90722656 77.30957031 C14.05273926 77.88529785 13.19825195 78.46102539 12.31787109 79.05419922 C10.18662024 80.5036222 8.08377226 81.98210081 5.99316406 83.48925781 C-3.12582098 90.05673662 -10.53254414 94.14381646 -22.09667969 92.69628906 C-29.36316887 90.75158836 -35.56765605 87.69655639 -39.6509552 81.23782349 C-43.82176147 73.50149692 -44.97620943 67.34957991 -44.85839844 58.62597656 C-44.86176712 57.42369415 -44.8651358 56.22141174 -44.86860657 54.98269653 C-44.8683096 52.45993743 -44.85323936 49.93714015 -44.82397461 47.41455078 C-44.78420508 43.57374163 -44.80333874 39.73637647 -44.82910156 35.89550781 C-44.82154348 33.4306508 -44.81059106 30.96580137 -44.79589844 28.50097656 C-44.80288254 27.36530243 -44.80986664 26.2296283 -44.81706238 25.05953979 C-44.66976633 16.66885996 -42.8935264 9.8834725 -37.15336609 3.55319214 C-26.95358945 -6.23850684 -12.03321899 -7.48222979 0 0 Z " fill="#1B84A8" transform="translate(396.0966796875,98.3037109375)"/>
<path d="M0 0 C8.12161235 6.61573006 12.65859283 15.42849881 14 25.70703125 C14.52303662 35.82452093 11.21397498 45.74798452 4.5859375 53.3828125 C-3.44156386 61.5424538 -12.86922449 65.31705283 -24.375 65.875 C-34.2524257 65.47104196 -42.38126001 61.20145959 -49.41015625 54.4140625 C-56.99619212 46.03359577 -59.97078543 36.83057918 -59.65625 25.5859375 C-58.57840332 15.32189754 -53.76839771 6.95543282 -45.953125 0.3046875 C-31.17551128 -10.66378976 -15.24182434 -10.28823143 0 0 Z " fill="#FCFDFE" transform="translate(243.3125,209.6875)"/>
<path d="M0 0 C22.11 0 44.22 0 67 0 C67 15.18 67 30.36 67 46 C44.89 46 22.78 46 0 46 C0 30.82 0 15.64 0 0 Z " fill="#FDFEFE" transform="translate(187,401)"/>
<path d="M0 0 C5.77055758 3.29746147 11.05954488 6.70996003 16.4375 10.5625 C17.26443359 11.13935547 18.09136719 11.71621094 18.94335938 12.31054688 C19.72388672 12.86935547 20.50441406 13.42816406 21.30859375 14.00390625 C22.01814209 14.50736572 22.72769043 15.0108252 23.45874023 15.52954102 C23.96735596 16.01479248 24.47597168 16.50004395 25 17 C25 17.99 25 18.98 25 20 C23.31933594 21.48632812 23.31933594 21.48632812 20.984375 23.03125 C20.14519531 23.59457031 19.30601562 24.15789062 18.44140625 24.73828125 C17.10916016 25.61033203 17.10916016 25.61033203 15.75 26.5 C14.01523088 27.6556586 12.28084262 28.81188916 10.546875 29.96875 C9.77182617 30.47857422 8.99677734 30.98839844 8.19824219 31.51367188 C6.7093395 32.5203844 5.2563142 33.58189798 3.84082031 34.68945312 C2 36 2 36 0 36 C0 24.12 0 12.24 0 0 Z " fill="#CAF4F7" transform="translate(381,124)"/>
</svg>
